<svg width="76" height="20" viewBox="0 0 76 20" fill="none" xmlns="http://www.w3.org/2000/svg">
<path fill-rule="evenodd" clip-rule="evenodd" d="M26.9003 18.9902L17.1484 0.83224H22.7744L27.7638 10.1422L32.7068 0.83224H38.3327L28.5809 18.9902H26.9003ZM41.3591 18.9902H46.403V0.83224H41.3591V18.9902ZM53.8023 13.0253C56.5825 16.1828 60.8174 16.3139 60.8174 13.9463C60.8174 12.5441 59.4485 12.1043 58.0372 11.6665C54.334 10.5246 51.7727 9.38666 51.7727 5.74498C51.7727 2.28084 54.9059 0 58.5234 0C61.7888 0 63.5522 0.7011 66.1124 2.23646L63.5522 6.22919C59.8459 3.59629 57.332 3.81822 57.0687 5.83476C56.8488 7.23696 58.9209 7.50025 61.126 8.24574C63.8175 9.03561 66.3323 10.8343 66.3323 14.0785C66.3323 17.1048 63.2001 20 59.3173 20C55.8774 20 52.614 18.9035 50.2736 16.5782L53.8023 13.0263V13.0253Z" fill="black"/>
<mask id="mask0_1810_1575" style="mask-type:alpha" maskUnits="userSpaceOnUse" x="0" y="0" width="76" height="20">
<path d="M0 19.999H75.5896V0H0V19.999Z" fill="#1A1919"/>
</mask>
<g mask="url(#mask0_1810_1575)">
<path fill-rule="evenodd" clip-rule="evenodd" d="M69.9001 19.4725H75.5896V0.571021H69.9001V19.4725ZM11.1157 0.548828L20.6002 19.4503H15.1306L10.2784 9.75896L5.46959 19.4503H0L9.48452 0.548828H11.1157Z" fill="black"/>
</g>
</svg>